<svg width="120px" height="60px" xmlns="http://www.w3.org/2000/svg" viewBox="105.4550537109375 14 289.089892578125 122" style="background:transparent" preserveAspectRatio="xMidYMid"><defs><linearGradient id="editing-glowing-gradient" x1="0.8146601955249186" x2="0.18533980447508142" y1="0.8885729807284856" y2="0.11142701927151444"><stop offset="0" stop-color="#67ff43"></stop><stop offset="1" stop-color="#90ffff"></stop></linearGradient><filter id="editing-glowing" x="-100%" y="-100%" width="300%" height="300%"><feGaussianBlur in="SourceGraphic" result="blur" stdDeviation="10"></feGaussianBlur><feMerge><feMergeNode in="blur"></feMergeNode><feMergeNode in="SourceGraphic"></feMergeNode></feMerge></filter></defs><g filter="url(#editing-glowing)"><g transform="translate(151.84898591041565, 96.76000022888184)"><path d="M28.42-9.86L28.42-9.86L28.42-9.86Q29.63-8.32 29.63-5.82L29.63-5.82L29.63-5.82Q29.63-2.37 27.07-0.54L27.07-0.54L27.07-0.54Q24.51 1.28 20.48 1.28L20.48 1.28L20.48 1.28Q18.18 1.28 14.66 0.77L14.66 0.77L14.66 0.77Q7.74-0.32 5.63-0.32L5.63-0.32L5.63-0.32Q3.52-0.32 2.69-0.22L2.69-0.22L2.69-0.22Q1.86-0.13 0.51 0L0.51 0L8.38-42.24L35.97-42.24L35.97-42.24Q35.97-38.34 34.08-36.29L34.08-36.29L34.08-36.29Q32.19-34.24 28.48-34.24L28.48-34.24L28.48-34.24Q24.77-34.24 20.99-35.97L20.99-35.97L19.01-24.77L30.40-24.77L30.40-24.77Q30.40-21.38 28.74-19.49L28.74-19.49L28.74-19.49Q27.07-17.60 24.29-17.60L24.29-17.60L24.29-17.60Q21.50-17.60 19.78-18.24L19.78-18.24L19.78-18.24Q18.05-18.88 17.86-19.07L17.86-19.07L15.55-6.98L15.55-6.98Q17.09-6.78 19.97-6.78L19.97-6.78L19.97-6.78Q24.90-6.78 28.42-9.86ZM81.60 1.28L81.60 1.28L81.60 1.28Q73.86 1.28 73.86-4.74L73.86-4.74L73.86-4.74Q73.86-7.36 74.98-12.45L74.98-12.45L74.98-12.45Q76.10-17.54 76.48-19.58L76.48-19.58L76.48-19.58Q77.38-24.26 77.38-25.73L77.38-25.73L77.38-25.73Q77.38-28.99 74.94-28.99L74.94-28.99L74.94-28.99Q73.34-28.99 71.81-26.78L71.81-26.78L71.81-26.78Q70.27-24.58 69.57-20.16L69.57-20.16L65.60 0L53.12 1.28L56.58-16.13L56.58-16.13Q57.15-19.01 57.66-22.27L57.66-22.27L57.66-22.27Q58.18-25.54 58.18-26.05L58.18-26.05L58.18-26.05Q58.18-28.99 56-28.99L56-28.99L56-28.99Q54.53-28.99 52.93-26.82L52.93-26.82L52.93-26.82Q51.33-24.64 50.43-20.16L50.43-20.16L46.53 0L33.92 1.28L40.64-32.64L51.07-33.92L49.98-27.46L49.98-27.46Q51.65-30.91 54.72-32.42L54.72-32.42L54.72-32.42Q57.79-33.92 62.59-33.92L62.59-33.92L62.59-33.92Q65.34-33.92 67.14-32.58L67.14-32.58L67.14-32.58Q68.93-31.23 69.50-29.06L69.50-29.06L69.50-29.06Q70.59-31.30 73.38-32.61L73.38-32.61L73.38-32.61Q76.16-33.92 79.58-33.92L79.58-33.92L79.58-33.92Q83.01-33.92 84.70-33.18L84.70-33.18L84.70-33.18Q86.40-32.45 87.42-31.23L87.42-31.23L87.42-31.23Q89.15-28.99 89.15-24.90L89.15-24.90L89.15-24.90Q89.15-20.86 87.42-12.48L87.42-12.48L87.42-12.48Q86.53-8.38 86.53-6.88L86.53-6.88L86.53-6.88Q86.53-5.38 87.39-4.48L87.39-4.48L87.39-4.48Q88.26-3.58 89.54-3.46L89.54-3.46L89.54-3.46Q88.90-1.28 86.69 0L86.69 0L86.69 0Q84.48 1.28 81.60 1.28ZM106.78 0.64L106.78 0.64L106.78 0.64Q103.74 0 102.18-0.29L102.18-0.29L102.18-0.29Q100.61-0.58 98.78-0.58L98.78-0.58L98.78-0.58Q96.96-0.58 95.17 0.06L95.17 0.06L95.17 0.06Q94.21-0.51 93.60-1.66L93.60-1.66L93.60-1.66Q92.99-2.82 92.99-4.61L92.99-4.61L92.99-4.61Q92.99-8.38 96.83-11.26L96.83-11.26L113.09-22.98L113.09-22.98Q108.54-24.26 104.42-24.26L104.42-24.26L104.42-24.26Q100.29-24.26 98.82-21.44L98.82-21.44L98.82-21.44Q96.64-24 96.64-28.03L96.64-28.03L96.64-28.03Q96.64-30.72 98.59-32.48L98.59-32.48L98.59-32.48Q100.54-34.24 104.64-34.24L104.64-34.24L104.64-34.24Q106.94-34.24 109.02-33.95L109.02-33.95L109.02-33.95Q111.10-33.66 112.96-33.41L112.96-33.41L116.42-32.90L116.42-32.90Q118.08-32.64 119.78-32.64L119.78-32.64L119.78-32.64Q121.47-32.64 122.75-33.34L122.75-33.34L122.75-33.34Q124.42-31.81 124.42-29.70L124.42-29.70L124.42-29.70Q124.42-26.37 120.32-22.91L120.32-22.91L104.13-10.82L104.13-10.82Q109.12-9.34 111.68-9.34L111.68-9.34L111.68-9.34Q117.06-9.34 119.36-11.90L119.36-11.90L119.36-11.90Q121.15-9.86 121.15-6.30L121.15-6.30L121.15-6.30Q121.15-2.75 118.85-0.74L118.85-0.74L118.85-0.74Q116.54 1.28 112.38 1.28L112.38 1.28L112.38 1.28Q109.82 1.28 106.78 0.64ZM140.67 1.28L140.67 1.28L140.67 1.28Q126.59 1.28 126.59-11.97L126.59-11.97L126.59-11.97Q126.59-21.38 131.78-27.46L131.78-27.46L131.78-27.46Q137.28-33.92 146.82-33.92L146.82-33.92L146.82-33.92Q153.73-33.92 157.25-30.72L157.25-30.72L157.25-30.72Q160.77-27.52 160.77-20.80L160.77-20.80L160.77-20.80Q160.77-10.56 155.26-4.61L155.26-4.61L155.26-4.61Q149.89 1.28 140.67 1.28ZM142.34-26.56L142.34-26.56L142.34-26.56Q141.57-24.83 140.96-22.24L140.96-22.24L140.96-22.24Q140.35-19.65 139.58-15.55L139.58-15.55L139.58-15.55Q138.82-11.46 138.82-6.40L138.82-6.40L138.82-6.40Q138.82-4.74 139.36-3.65L139.36-3.65L139.36-3.65Q139.90-2.56 141.38-2.56L141.38-2.56L141.38-2.56Q142.85-2.56 143.78-3.26L143.78-3.26L143.78-3.26Q144.70-3.97 145.41-5.63L145.41-5.63L145.41-5.63Q146.69-8.58 147.71-14.05L147.71-14.05L147.71-14.05Q148.74-19.52 148.83-21.89L148.83-21.89L148.83-21.89Q148.93-24.26 148.93-26.02L148.93-26.02L148.93-26.02Q148.93-27.78 148.42-28.93L148.42-28.93L148.42-28.93Q147.90-30.08 146.46-30.08L146.46-30.08L146.46-30.08Q145.02-30.08 144.06-29.18L144.06-29.18L144.06-29.18Q143.10-28.29 142.34-26.56ZM184.58-17.98L184.58-17.98L184.58-17.98Q186.88-22.08 186.88-26.24L186.88-26.24L186.88-26.24Q186.88-28.99 184.90-28.99L184.90-28.99L184.90-28.99Q183.36-28.99 181.76-26.37L181.76-26.37L181.76-26.37Q180.10-23.74 179.58-20.35L179.58-20.35L176.26 0L163.01 1.28L169.54-32.64L180.10-33.92L178.94-27.46L178.94-27.46Q182.08-33.92 189.12-33.92L189.12-33.92L189.12-33.92Q192.83-33.92 194.85-32L194.85-32L194.85-32Q196.86-30.08 196.86-26.14L196.86-26.14L196.86-26.14Q196.86-22.21 194.27-19.71L194.27-19.71L194.27-19.71Q191.68-17.22 187.26-17.22L187.26-17.22L187.26-17.22Q185.34-17.22 184.58-17.98Z" fill="url(#editing-glowing-gradient)"></path></g></g><style>text {
  font-size: 20px;
  font-family: Arial Black;
  dominant-baseline: central;
  text-anchor: middle;
}</style></svg>